Begok.ufo
<glyph name="zero" format="2">
  <advance width="911"/>
  <unicode hex="0030"/>
  <outline>
    <contour>
      <point x="620" y="700" type="line" smooth="yes"/>
      <point x="761" y="700"/>
      <point x="842" y="535" type="qcurve"/>
      <point x="863" y="480"/>
      <point x="863" y="429" type="qcurve" smooth="yes"/>
      <point x="863" y="271" type="line" smooth="yes"/>
      <point x="863" y="119"/>
      <point x="729" y="31" type="qcurve" smooth="yes"/>
      <point x="677" y="0"/>
      <point x="630" y="0" type="qcurve" smooth="yes"/>
      <point x="232" y="0" type="line" smooth="yes"/>
      <point x="122" y="0"/>
      <point x="36" y="132" type="qcurve"/>
      <point x="0" y="201"/>
      <point x="0" y="269" type="qcurve" smooth="yes"/>
      <point x="0" y="429" type="line" smooth="yes"/>
      <point x="0" y="580"/>
      <point x="134" y="669" type="qcurve" smooth="yes"/>
      <point x="187" y="700"/>
      <point x="243" y="700" type="qcurve" smooth="yes"/>
    </contour>
    <contour>
      <point x="145" y="238" type="line" smooth="yes"/>
      <point x="145" y="178"/>
      <point x="230" y="145" type="qcurve"/>
      <point x="618" y="145" type="line" smooth="yes"/>
      <point x="691" y="145"/>
      <point x="718" y="232" type="qcurve"/>
      <point x="718" y="455" type="line" smooth="yes"/>
      <point x="718" y="531"/>
      <point x="630" y="553" type="qcurve" smooth="yes"/>
      <point x="627" y="556"/>
      <point x="610" y="556" type="qcurve" smooth="yes"/>
      <point x="253" y="556" type="line" smooth="yes"/>
      <point x="166" y="556"/>
      <point x="145" y="462" type="qcurve"/>
    </contour>
    <contour>
      <point x="523" y="279" type="line"/>
      <point x="340" y="279" type="line"/>
      <point x="340" y="421" type="line"/>
      <point x="523" y="421" type="line"/>
    </contour>
  </outline>
</glyph>
<glyph name="one" format="2">
  <advance width="532"/>
  <unicode hex="0031"/>
  <outline>
    <contour>
      <point x="243" y="700" type="line" smooth="yes"/>
      <point x="389" y="700"/>
      <point x="470" y="527" type="qcurve"/>
      <point x="486" y="473"/>
      <point x="486" y="442" type="qcurve" smooth="yes"/>
      <point x="486" y="5" type="line" smooth="yes"/>
      <point x="486" y="0"/>
      <point x="480" y="0" type="qcurve" smooth="yes"/>
      <point x="349" y="0" type="line" smooth="yes"/>
      <point x="344" y="0"/>
      <point x="344" y="5" type="qcurve" smooth="yes"/>
      <point x="344" y="444" type="line" smooth="yes"/>
      <point x="344" y="526"/>
      <point x="261" y="553" type="qcurve" smooth="yes"/>
      <point x="248" y="556"/>
      <point x="238" y="556" type="qcurve" smooth="yes"/>
      <point x="161" y="556" type="line"/>
      <point x="4" y="700" type="line"/>
    </contour>
  </outline>
</glyph>
<glyph name="two" format="2">
  <advance width="909"/>
  <unicode hex="0032"/>
  <outline>
    <contour>
      <point x="182" y="556" type="line"/>
      <point x="9" y="700" type="line"/>
      <point x="654" y="700" type="line" smooth="yes"/>
      <point x="792" y="700"/>
      <point x="853" y="550" type="qcurve"/>
      <point x="860" y="519"/>
      <point x="860" y="488" type="qcurve" smooth="yes"/>
      <point x="860" y="486" type="line" smooth="yes"/>
      <point x="860" y="342"/>
      <point x="703" y="282" type="qcurve"/>
      <point x="667" y="276"/>
      <point x="651" y="276" type="qcurve" smooth="yes"/>
      <point x="199" y="276" type="line" smooth="yes"/>
      <point x="126" y="276"/>
      <point x="126" y="196" type="qcurve" smooth="yes"/>
      <point x="126" y="145" type="line"/>
      <point x="663" y="145" type="line"/>
      <point x="854" y="0" type="line"/>
      <point x="5" y="0" type="line" smooth="yes"/>
      <point x="0" y="0"/>
      <point x="0" y="5" type="qcurve" smooth="yes"/>
      <point x="0" y="217" type="line" smooth="yes"/>
      <point x="0" y="360"/>
      <point x="160" y="418" type="qcurve"/>
      <point x="199" y="424"/>
      <point x="225" y="424" type="qcurve" smooth="yes"/>
      <point x="664" y="424" type="line" smooth="yes"/>
      <point x="704" y="424"/>
      <point x="724" y="458" type="qcurve" smooth="yes"/>
      <point x="731" y="471"/>
      <point x="731" y="483" type="qcurve" smooth="yes"/>
      <point x="731" y="494" type="line" smooth="yes"/>
      <point x="731" y="548"/>
      <point x="654" y="556" type="qcurve"/>
    </contour>
  </outline>
</glyph>
<glyph name="three" format="2">
  <advance width="909"/>
  <unicode hex="0033"/>
  <outline>
    <contour>
      <point x="654" y="700" type="line" smooth="yes"/>
      <point x="792" y="700"/>
      <point x="853" y="550" type="qcurve"/>
      <point x="860" y="519"/>
      <point x="860" y="488" type="qcurve" smooth="yes"/>
      <point x="860" y="486" type="line" smooth="yes"/>
      <point x="860" y="410"/>
      <point x="809" y="349" type="qcurve"/>
      <point x="860" y="292"/>
      <point x="860" y="214" type="qcurve" smooth="yes"/>
      <point x="860" y="212" type="line" smooth="yes"/>
      <point x="860" y="71"/>
      <point x="718" y="10" type="qcurve" smooth="yes"/>
      <point x="689" y="0"/>
      <point x="664" y="0" type="qcurve" smooth="yes"/>
      <point x="0" y="0" type="line"/>
      <point x="173" y="145" type="line"/>
      <point x="659" y="145" type="line"/>
      <point x="731" y="154"/>
      <point x="731" y="207" type="qcurve" smooth="yes"/>
      <point x="731" y="217" type="line" smooth="yes"/>
      <point x="731" y="267"/>
      <point x="662" y="276" type="qcurve"/>
      <point x="173" y="276" type="line"/>
      <point x="0" y="424" type="line"/>
      <point x="664" y="424" type="line" smooth="yes"/>
      <point x="704" y="424"/>
      <point x="724" y="458" type="qcurve" smooth="yes"/>
      <point x="731" y="471"/>
      <point x="731" y="483" type="qcurve" smooth="yes"/>
      <point x="731" y="494" type="line" smooth="yes"/>
      <point x="731" y="548"/>
      <point x="654" y="556" type="qcurve"/>
      <point x="173" y="556" type="line"/>
      <point x="0" y="700" type="line"/>
    </contour>
  </outline>
</glyph>
<glyph name="four" format="2">
  <advance width="909"/>
  <unicode hex="0034"/>
  <outline>
    <contour>
      <point x="860" y="5" type="line" smooth="yes"/>
      <point x="860" y="0"/>
      <point x="855" y="0" type="qcurve" smooth="yes"/>
      <point x="736" y="0" type="line" smooth="yes"/>
      <point x="731" y="0"/>
      <point x="731" y="5" type="qcurve" smooth="yes"/>
      <point x="731" y="217" type="line" smooth="yes"/>
      <point x="731" y="267"/>
      <point x="662" y="276" type="qcurve"/>
      <point x="209" y="276" type="line" smooth="yes"/>
      <point x="62" y="276"/>
      <point x="5" y="437" type="qcurve" smooth="yes"/>
      <point x="0" y="457"/>
      <point x="0" y="476" type="qcurve" smooth="yes"/>
      <point x="0" y="695" type="line"/>
      <point x="126" y="588" type="line"/>
      <point x="126" y="509" type="line" smooth="yes"/>
      <point x="126" y="449"/>
      <point x="166" y="429" type="qcurve" smooth="yes"/>
      <point x="184" y="424"/>
      <point x="188" y="424" type="qcurve" smooth="yes"/>
      <point x="636" y="424" type="line" smooth="yes"/>
      <point x="683" y="424"/>
      <point x="731" y="408" type="qcurve"/>
      <point x="731" y="592" type="line"/>
      <point x="858" y="699" type="line" smooth="yes"/>
      <point x="860" y="697"/>
      <point x="860" y="695" type="qcurve" smooth="yes"/>
    </contour>
  </outline>
</glyph>
<glyph name="six" format="2">
  <advance width="909"/>
  <unicode hex="0036"/>
  <outline>
    <contour>
      <point x="202" y="145" type="qcurve"/>
      <point x="659" y="145" type="line"/>
      <point x="731" y="154"/>
      <point x="731" y="207" type="qcurve" smooth="yes"/>
      <point x="731" y="217" type="line" smooth="yes"/>
      <point x="731" y="267"/>
      <point x="662" y="276" type="qcurve"/>
      <point x="199" y="276" type="line"/>
      <point x="129" y="270"/>
      <point x="129" y="214" type="qcurve"/>
      <point x="126" y="214"/>
      <point x="126" y="212" type="qcurve" smooth="yes"/>
      <point x="126" y="154"/>
    </contour>
    <contour>
      <point x="214" y="556" type="line" smooth="yes"/>
      <point x="149" y="556"/>
      <point x="132" y="512" type="qcurve" smooth="yes"/>
      <point x="132" y="508"/>
      <point x="126" y="491" type="qcurve"/>
      <point x="139" y="424"/>
      <point x="188" y="424" type="qcurve" smooth="yes"/>
      <point x="636" y="424" type="line" smooth="yes"/>
      <point x="805" y="424"/>
      <point x="855" y="258" type="qcurve" smooth="yes"/>
      <point x="860" y="241"/>
      <point x="860" y="214" type="qcurve" smooth="yes"/>
      <point x="860" y="212" type="line" smooth="yes"/>
      <point x="860" y="71"/>
      <point x="718" y="10" type="qcurve" smooth="yes"/>
      <point x="689" y="0"/>
      <point x="664" y="0" type="qcurve" smooth="yes"/>
      <point x="202" y="0" type="line" smooth="yes"/>
      <point x="73" y="0"/>
      <point x="10" y="142" type="qcurve" smooth="yes"/>
      <point x="0" y="171"/>
      <point x="0" y="204" type="qcurve" smooth="yes"/>
      <point x="0" y="217" type="line" smooth="yes"/>
      <point x="0" y="290"/>
      <point x="52" y="352" type="qcurve"/>
      <point x="0" y="408"/>
      <point x="0" y="476" type="qcurve" smooth="yes"/>
      <point x="0" y="496" type="line" smooth="yes"/>
      <point x="0" y="633"/>
      <point x="155" y="695" type="qcurve"/>
      <point x="184" y="700"/>
      <point x="199" y="700" type="qcurve" smooth="yes"/>
      <point x="852" y="700" type="line"/>
      <point x="678" y="556" type="line"/>
    </contour>
  </outline>
</glyph>
<glyph name="seven" format="2">
  <advance width="911"/>
  <unicode hex="0037"/>
  <outline>
    <contour>
      <point x="618" y="700" type="line" smooth="yes"/>
      <point x="751" y="700"/>
      <point x="832" y="556" type="qcurve" smooth="yes"/>
      <point x="863" y="495"/>
      <point x="863" y="418" type="qcurve" smooth="yes"/>
      <point x="863" y="5" type="line" smooth="yes"/>
      <point x="863" y="0"/>
      <point x="858" y="0" type="qcurve" smooth="yes"/>
      <point x="724" y="0" type="line" smooth="yes"/>
      <point x="718" y="0"/>
      <point x="718" y="5" type="qcurve" smooth="yes"/>
      <point x="718" y="452" type="line" smooth="yes"/>
      <point x="718" y="525"/>
      <point x="636" y="553" type="qcurve" smooth="yes"/>
      <point x="623" y="556"/>
      <point x="612" y="556" type="qcurve" smooth="yes"/>
      <point x="182" y="556" type="line"/>
      <point x="9" y="700" type="line"/>
    </contour>
  </outline>
</glyph>
<glyph name="eight" format="2">
  <advance width="909"/>
  <unicode hex="0038"/>
  <outline>
    <contour>
      <point x="654" y="700" type="line" smooth="yes"/>
      <point x="792" y="700"/>
      <point x="853" y="550" type="qcurve"/>
      <point x="860" y="519"/>
      <point x="860" y="488" type="qcurve" smooth="yes"/>
      <point x="860" y="486" type="line" smooth="yes"/>
      <point x="860" y="410"/>
      <point x="809" y="349" type="qcurve"/>
      <point x="860" y="292"/>
      <point x="860" y="214" type="qcurve" smooth="yes"/>
      <point x="860" y="212" type="line" smooth="yes"/>
      <point x="860" y="71"/>
      <point x="718" y="10" type="qcurve" smooth="yes"/>
      <point x="689" y="0"/>
      <point x="664" y="0" type="qcurve" smooth="yes"/>
      <point x="202" y="0" type="line" smooth="yes"/>
      <point x="73" y="0"/>
      <point x="10" y="142" type="qcurve" smooth="yes"/>
      <point x="0" y="171"/>
      <point x="0" y="204" type="qcurve" smooth="yes"/>
      <point x="0" y="217" type="line" smooth="yes"/>
      <point x="0" y="290"/>
      <point x="52" y="352" type="qcurve"/>
      <point x="0" y="408"/>
      <point x="0" y="476" type="qcurve" smooth="yes"/>
      <point x="0" y="496" type="line" smooth="yes"/>
      <point x="0" y="633"/>
      <point x="155" y="695" type="qcurve"/>
      <point x="184" y="700"/>
      <point x="199" y="700" type="qcurve" smooth="yes"/>
    </contour>
    <contour>
      <point x="664" y="424" type="line"/>
      <point x="731" y="433"/>
      <point x="731" y="483" type="qcurve" smooth="yes"/>
      <point x="731" y="494" type="line" smooth="yes"/>
      <point x="731" y="548"/>
      <point x="654" y="556" type="qcurve"/>
      <point x="214" y="556" type="line" smooth="yes"/>
      <point x="149" y="556"/>
      <point x="132" y="512" type="qcurve" smooth="yes"/>
      <point x="132" y="508"/>
      <point x="126" y="491" type="qcurve"/>
      <point x="139" y="424"/>
      <point x="188" y="424" type="qcurve" smooth="yes"/>
    </contour>
    <contour>
      <point x="202" y="145" type="qcurve"/>
      <point x="659" y="145" type="line"/>
      <point x="731" y="154"/>
      <point x="731" y="207" type="qcurve" smooth="yes"/>
      <point x="731" y="217" type="line" smooth="yes"/>
      <point x="731" y="267"/>
      <point x="662" y="276" type="qcurve"/>
      <point x="199" y="276" type="line"/>
      <point x="129" y="270"/>
      <point x="129" y="214" type="qcurve"/>
      <point x="126" y="214"/>
      <point x="126" y="212" type="qcurve" smooth="yes"/>
      <point x="126" y="154"/>
    </contour>
  </outline>
</glyph>
<glyph name="nine" format="2">
  <advance width="909"/>
  <unicode hex="0039"/>
  <outline>
    <contour>
      <point x="664" y="424" type="line" smooth="yes"/>
      <point x="704" y="424"/>
      <point x="724" y="458" type="qcurve" smooth="yes"/>
      <point x="731" y="471"/>
      <point x="731" y="483" type="qcurve" smooth="yes"/>
      <point x="731" y="494" type="line" smooth="yes"/>
      <point x="731" y="548"/>
      <point x="654" y="556" type="qcurve"/>
      <point x="214" y="556" type="line" smooth="yes"/>
      <point x="149" y="556"/>
      <point x="132" y="512" type="qcurve" smooth="yes"/>
      <point x="132" y="508"/>
      <point x="126" y="491" type="qcurve"/>
      <point x="139" y="424"/>
      <point x="188" y="424" type="qcurve" smooth="yes"/>
    </contour>
    <contour>
      <point x="659" y="145" type="line"/>
      <point x="731" y="154"/>
      <point x="731" y="207" type="qcurve" smooth="yes"/>
      <point x="731" y="217" type="line" smooth="yes"/>
      <point x="731" y="267"/>
      <point x="662" y="276" type="qcurve"/>
      <point x="209" y="276" type="line" smooth="yes"/>
      <point x="62" y="276"/>
      <point x="5" y="437" type="qcurve" smooth="yes"/>
      <point x="0" y="457"/>
      <point x="0" y="476" type="qcurve" smooth="yes"/>
      <point x="0" y="496" type="line" smooth="yes"/>
      <point x="0" y="633"/>
      <point x="155" y="695" type="qcurve"/>
      <point x="184" y="700"/>
      <point x="199" y="700" type="qcurve" smooth="yes"/>
      <point x="654" y="700" type="line" smooth="yes"/>
      <point x="792" y="700"/>
      <point x="853" y="550" type="qcurve"/>
      <point x="860" y="519"/>
      <point x="860" y="488" type="qcurve" smooth="yes"/>
      <point x="860" y="486" type="line" smooth="yes"/>
      <point x="860" y="410"/>
      <point x="809" y="349" type="qcurve"/>
      <point x="860" y="292"/>
      <point x="860" y="214" type="qcurve" smooth="yes"/>
      <point x="860" y="212" type="line" smooth="yes"/>
      <point x="860" y="71"/>
      <point x="718" y="10" type="qcurve" smooth="yes"/>
      <point x="689" y="0"/>
      <point x="664" y="0" type="qcurve" smooth="yes"/>
      <point x="6" y="0" type="line"/>
      <point x="197" y="145" type="line"/>
    </contour>
  </outline>
</glyph>
<glyph name="a" format="2">
  <advance width="911"/>
  <unicode hex="0061"/>
  <outline>
    <contour>
      <point x="718" y="455" type="line" smooth="yes"/>
      <point x="718" y="529"/>
      <point x="630" y="553" type="qcurve" smooth="yes"/>
      <point x="627" y="556"/>
      <point x="610" y="556" type="qcurve" smooth="yes"/>
      <point x="253" y="556" type="line" smooth="yes"/>
      <point x="166" y="556"/>
      <point x="145" y="462" type="qcurve"/>
      <point x="145" y="238" type="line" smooth="yes"/>
      <point x="145" y="178"/>
      <point x="230" y="145" type="qcurve"/>
      <point x="618" y="145" type="line" smooth="yes"/>
      <point x="691" y="145"/>
      <point x="718" y="232" type="qcurve"/>
    </contour>
    <contour>
      <point x="863" y="700" type="line"/>
      <point x="863" y="5" type="line" smooth="yes"/>
      <point x="863" y="0"/>
      <point x="858" y="0" type="qcurve" smooth="yes"/>
      <point x="724" y="0" type="line" smooth="yes"/>
      <point x="718" y="0"/>
      <point x="718" y="5" type="qcurve" smooth="yes"/>
      <point x="718" y="23" type="line"/>
      <point x="716" y="23" type="line"/>
      <point x="667" y="0"/>
      <point x="630" y="0" type="qcurve" smooth="yes"/>
      <point x="232" y="0" type="line" smooth="yes"/>
      <point x="122" y="0"/>
      <point x="36" y="132" type="qcurve"/>
      <point x="0" y="201"/>
      <point x="0" y="269" type="qcurve" smooth="yes"/>
      <point x="0" y="429" type="line" smooth="yes"/>
      <point x="0" y="580"/>
      <point x="134" y="669" type="qcurve" smooth="yes"/>
      <point x="187" y="700"/>
      <point x="243" y="700" type="qcurve" smooth="yes"/>
      <point x="620" y="700" type="line" smooth="yes"/>
      <point x="675" y="700"/>
      <point x="718" y="677" type="qcurve"/>
      <point x="718" y="700" type="line"/>
    </contour>
  </outline>
</glyph>
<glyph name="b" format="2">
  <advance width="910"/>
  <unicode hex="0062"/>
  <outline>
    <contour>
      <point x="281" y="556" type="line" smooth="yes"/>
      <point x="242" y="556"/>
      <point x="224" y="551" type="qcurve" smooth="yes"/>
      <point x="144" y="524"/>
      <point x="144" y="453" type="qcurve" smooth="yes"/>
      <point x="144" y="245" type="line" smooth="yes"/>
      <point x="144" y="235"/>
      <point x="147" y="224" type="qcurve" smooth="yes"/>
      <point x="176" y="144"/>
      <point x="255" y="144" type="qcurve" smooth="yes"/>
      <point x="605" y="144" type="line" smooth="yes"/>
      <point x="699" y="144"/>
      <point x="716" y="245" type="qcurve"/>
      <point x="716" y="461" type="line" smooth="yes"/>
      <point x="716" y="477"/>
      <point x="700" y="504" type="qcurve" smooth="yes"/>
      <point x="673" y="556"/>
      <point x="579" y="556" type="qcurve" smooth="yes"/>
    </contour>
    <contour>
      <point x="592" y="700" type="line" smooth="yes"/>
      <point x="680" y="700"/>
      <point x="731" y="664" type="qcurve" smooth="yes"/>
      <point x="860" y="574"/>
      <point x="860" y="430" type="qcurve" smooth="yes"/>
      <point x="860" y="271" type="line" smooth="yes"/>
      <point x="860" y="221"/>
      <point x="839" y="165" type="qcurve"/>
      <point x="760" y="0"/>
      <point x="615" y="0" type="qcurve" smooth="yes"/>
      <point x="245" y="0" type="line" smooth="yes"/>
      <point x="216" y="0"/>
      <point x="162" y="16" type="qcurve"/>
      <point x="0" y="105"/>
      <point x="0" y="271" type="qcurve" smooth="yes"/>
      <point x="0" y="834" type="line"/>
      <point x="144" y="740" type="line"/>
      <point x="144" y="674" type="line"/>
      <point x="198" y="700"/>
      <point x="268" y="700" type="qcurve" smooth="yes"/>
    </contour>
  </outline>
</glyph>
<glyph name="d" format="2">
  <advance width="908"/>
  <unicode hex="0064"/>
  <outline>
    <contour>
      <point x="144" y="245" type="line"/>
      <point x="161" y="144"/>
      <point x="255" y="144" type="qcurve" smooth="yes"/>
      <point x="605" y="144" type="line" smooth="yes"/>
      <point x="684" y="144"/>
      <point x="713" y="224" type="qcurve" smooth="yes"/>
      <point x="716" y="235"/>
      <point x="716" y="245" type="qcurve" smooth="yes"/>
      <point x="716" y="453" type="line" smooth="yes"/>
      <point x="716" y="524"/>
      <point x="636" y="551" type="qcurve" smooth="yes"/>
      <point x="619" y="556"/>
      <point x="579" y="556" type="qcurve" smooth="yes"/>
      <point x="281" y="556" type="line" smooth="yes"/>
      <point x="187" y="556"/>
      <point x="160" y="504" type="qcurve" smooth="yes"/>
      <point x="144" y="477"/>
      <point x="144" y="461" type="qcurve" smooth="yes"/>
    </contour>
    <contour>
      <point x="860" y="271" type="line" smooth="yes"/>
      <point x="860" y="105"/>
      <point x="698" y="16" type="qcurve"/>
      <point x="644" y="0"/>
      <point x="615" y="0" type="qcurve" smooth="yes"/>
      <point x="245" y="0" type="line" smooth="yes"/>
      <point x="101" y="0"/>
      <point x="21" y="165" type="qcurve"/>
      <point x="0" y="221"/>
      <point x="0" y="271" type="qcurve" smooth="yes"/>
      <point x="0" y="430" type="line" smooth="yes"/>
      <point x="0" y="574"/>
      <point x="129" y="664" type="qcurve" smooth="yes"/>
      <point x="180" y="700"/>
      <point x="268" y="700" type="qcurve" smooth="yes"/>
      <point x="592" y="700" type="line" smooth="yes"/>
      <point x="662" y="700"/>
      <point x="716" y="674" type="qcurve"/>
      <point x="716" y="740" type="line"/>
      <point x="859" y="834" type="line"/>
      <point x="860" y="833" type="line"/>
    </contour>
  </outline>
</glyph>
<glyph name="e" format="2">
  <advance width="909"/>
  <unicode hex="0065"/>
  <outline>
    <contour>
      <point x="253" y="556" type="line" smooth="yes"/>
      <point x="166" y="556"/>
      <point x="145" y="462" type="qcurve"/>
      <point x="145" y="238" type="line" smooth="yes"/>
      <point x="145" y="178"/>
      <point x="230" y="145" type="qcurve"/>
      <point x="618" y="145" type="line" smooth="yes"/>
      <point x="690" y="145"/>
      <point x="718" y="232" type="qcurve" smooth="yes"/>
      <point x="720" y="238"/>
      <point x="724" y="238" type="qcurve" smooth="yes"/>
      <point x="855" y="238" type="line" smooth="yes"/>
      <point x="860" y="237"/>
      <point x="860" y="232" type="qcurve" smooth="yes"/>
      <point x="847" y="149"/>
      <point x="798" y="93" type="qcurve" smooth="yes"/>
      <point x="720" y="0"/>
      <point x="630" y="0" type="qcurve" smooth="yes"/>
      <point x="232" y="0" type="line" smooth="yes"/>
      <point x="122" y="0"/>
      <point x="36" y="132" type="qcurve"/>
      <point x="0" y="201"/>
      <point x="0" y="269" type="qcurve" smooth="yes"/>
      <point x="0" y="429" type="line" smooth="yes"/>
      <point x="0" y="580"/>
      <point x="134" y="669" type="qcurve" smooth="yes"/>
      <point x="187" y="700"/>
      <point x="243" y="700" type="qcurve" smooth="yes"/>
      <point x="620" y="700" type="line" smooth="yes"/>
      <point x="764" y="700"/>
      <point x="845" y="530" type="qcurve"/>
      <point x="860" y="478"/>
      <point x="860" y="455" type="qcurve" smooth="yes"/>
      <point x="860" y="323" type="line" smooth="yes"/>
      <point x="860" y="318"/>
      <point x="855" y="318" type="qcurve" smooth="yes"/>
      <point x="408" y="318" type="line"/>
      <point x="231" y="462" type="line"/>
      <point x="718" y="462" type="line"/>
      <point x="695" y="556"/>
      <point x="610" y="556" type="qcurve" smooth="yes"/>
    </contour>
  </outline>
</glyph>
<glyph name="f" format="2">
  <advance width="911"/>
  <unicode hex="0066"/>
  <outline>
    <contour>
      <point x="0" y="430" type="line" smooth="yes"/>
      <point x="0" y="597"/>
      <point x="162" y="685" type="qcurve"/>
      <point x="213" y="700"/>
      <point x="245" y="700" type="qcurve" smooth="yes"/>
      <point x="863" y="700" type="line"/>
      <point x="706" y="556" type="line"/>
      <point x="255" y="556" type="line" smooth="yes"/>
      <point x="176" y="556"/>
      <point x="147" y="476" type="qcurve" smooth="yes"/>
      <point x="144" y="466"/>
      <point x="144" y="456" type="qcurve" smooth="yes"/>
      <point x="144" y="399" type="line"/>
      <point x="737" y="399" type="line"/>
      <point x="560" y="254" type="line"/>
      <point x="144" y="254" type="line"/>
      <point x="144" y="-108" type="line"/>
      <point x="0" y="-203" type="line"/>
    </contour>
  </outline>
</glyph>
<glyph name="g" format="2">
  <advance width="912"/>
  <unicode hex="0067"/>
  <outline>
    <contour>
      <point x="718" y="455" type="line" smooth="yes"/>
      <point x="718" y="531"/>
      <point x="630" y="553" type="qcurve" smooth="yes"/>
      <point x="627" y="556"/>
      <point x="610" y="556" type="qcurve" smooth="yes"/>
      <point x="253" y="556" type="line" smooth="yes"/>
      <point x="166" y="556"/>
      <point x="145" y="462" type="qcurve"/>
      <point x="145" y="238" type="line" smooth="yes"/>
      <point x="145" y="178"/>
      <point x="230" y="145" type="qcurve"/>
      <point x="618" y="145" type="line" smooth="yes"/>
      <point x="649" y="145"/>
      <point x="671" y="160" type="qcurve" smooth="yes"/>
      <point x="703" y="181"/>
      <point x="718" y="232" type="qcurve"/>
    </contour>
    <contour>
      <point x="618" y="-60" type="line" smooth="yes"/>
      <point x="690" y="-60"/>
      <point x="717" y="24" type="qcurve"/>
      <point x="672" y="0"/>
      <point x="630" y="0" type="qcurve" smooth="yes"/>
      <point x="232" y="0" type="line" smooth="yes"/>
      <point x="122" y="0"/>
      <point x="36" y="132" type="qcurve"/>
      <point x="0" y="201"/>
      <point x="0" y="269" type="qcurve" smooth="yes"/>
      <point x="0" y="429" type="line" smooth="yes"/>
      <point x="0" y="580"/>
      <point x="134" y="669" type="qcurve" smooth="yes"/>
      <point x="187" y="700"/>
      <point x="243" y="700" type="qcurve" smooth="yes"/>
      <point x="620" y="700" type="line" smooth="yes"/>
      <point x="675" y="700"/>
      <point x="718" y="677" type="qcurve"/>
      <point x="718" y="700" type="line"/>
      <point x="863" y="700" type="line"/>
      <point x="863" y="67" type="line" smooth="yes"/>
      <point x="863" y="-85"/>
      <point x="729" y="-173" type="qcurve" smooth="yes"/>
      <point x="677" y="-204"/>
      <point x="630" y="-204" type="qcurve" smooth="yes"/>
      <point x="219" y="-204" type="line"/>
      <point x="392" y="-60" type="line"/>
    </contour>
  </outline>
</glyph>
<glyph name="h" format="2">
  <advance width="912"/>
  <unicode hex="0068"/>
  <outline>
    <contour>
      <point x="145" y="675" type="line"/>
      <point x="194" y="701"/>
      <point x="243" y="701" type="qcurve" smooth="yes"/>
      <point x="621" y="701" type="line" smooth="yes"/>
      <point x="762" y="701"/>
      <point x="843" y="535" type="qcurve"/>
      <point x="863" y="482"/>
      <point x="863" y="429" type="qcurve" smooth="yes"/>
      <point x="863" y="5" type="line" smooth="yes"/>
      <point x="863" y="0"/>
      <point x="858" y="0" type="qcurve" smooth="yes"/>
      <point x="724" y="0" type="line" smooth="yes"/>
      <point x="719" y="0"/>
      <point x="719" y="5" type="qcurve" smooth="yes"/>
      <point x="719" y="455" type="line" smooth="yes"/>
      <point x="719" y="526"/>
      <point x="636" y="553" type="qcurve" smooth="yes"/>
      <point x="623" y="556"/>
      <point x="610" y="556" type="qcurve" smooth="yes"/>
      <point x="253" y="556" type="line" smooth="yes"/>
      <point x="166" y="556"/>
      <point x="145" y="463" type="qcurve"/>
      <point x="145" y="5" type="line" smooth="yes"/>
      <point x="145" y="0"/>
      <point x="140" y="0" type="qcurve" smooth="yes"/>
      <point x="5" y="0" type="line" smooth="yes"/>
      <point x="0" y="0"/>
      <point x="0" y="5" type="qcurve" smooth="yes"/>
      <point x="0" y="834" type="line"/>
      <point x="144" y="740" type="line"/>
    </contour>
  </outline>
</glyph>
<glyph name="i" format="2">
  <advance width="190"/>
  <unicode hex="0069"/>
  <outline>
    <contour>
      <point x="136" y="888" type="line" smooth="yes"/>
      <point x="142" y="887"/>
      <point x="142" y="883" type="qcurve" smooth="yes"/>
      <point x="142" y="749" type="line" smooth="yes"/>
      <point x="142" y="744"/>
      <point x="136" y="744" type="qcurve" smooth="yes"/>
      <point x="5" y="744" type="line" smooth="yes"/>
      <point x="0" y="744"/>
      <point x="0" y="749" type="qcurve" smooth="yes"/>
      <point x="0" y="883" type="line" smooth="yes"/>
      <point x="1" y="888"/>
      <point x="5" y="888" type="qcurve" smooth="yes"/>
    </contour>
    <contour>
      <point x="136" y="700" type="line" smooth="yes"/>
      <point x="142" y="700"/>
      <point x="142" y="695" type="qcurve" smooth="yes"/>
      <point x="142" y="5" type="line" smooth="yes"/>
      <point x="142" y="0"/>
      <point x="136" y="0" type="qcurve" smooth="yes"/>
      <point x="5" y="0" type="line" smooth="yes"/>
      <point x="0" y="0"/>
      <point x="0" y="5" type="qcurve" smooth="yes"/>
      <point x="0" y="695" type="line" smooth="yes"/>
      <point x="2" y="700"/>
      <point x="5" y="700" type="qcurve" smooth="yes"/>
    </contour>
  </outline>
</glyph>
<glyph name="j" format="2">
  <advance width="911"/>
  <unicode hex="006A"/>
  <outline>
    <contour>
      <point x="858" y="271" type="line" smooth="yes"/>
      <point x="858" y="105"/>
      <point x="696" y="16" type="qcurve"/>
      <point x="642" y="0"/>
      <point x="613" y="0" type="qcurve" smooth="yes"/>
      <point x="243" y="0" type="line" smooth="yes"/>
      <point x="99" y="0"/>
      <point x="19" y="165" type="qcurve"/>
      <point x="4" y="206"/>
      <point x="0" y="238" type="qcurve"/>
      <point x="143" y="238" type="line"/>
      <point x="161" y="144"/>
      <point x="253" y="144" type="qcurve" smooth="yes"/>
      <point x="603" y="144" type="line" smooth="yes"/>
      <point x="682" y="144"/>
      <point x="711" y="224" type="qcurve" smooth="yes"/>
      <point x="714" y="235"/>
      <point x="714" y="245" type="qcurve" smooth="yes"/>
      <point x="714" y="657" type="line"/>
      <point x="857" y="751" type="line"/>
      <point x="858" y="750" type="line"/>
    </contour>
  </outline>
</glyph>
<glyph name="k" format="2">
  <advance width="906"/>
  <unicode hex="006B"/>
  <outline>
    <contour>
      <point x="145" y="370" type="line"/>
      <point x="855" y="700" type="line"/>
      <point x="858" y="695" type="line"/>
      <point x="858" y="545" type="line"/>
      <point x="824" y="525"/>
      <point x="483" y="367" type="qcurve"/>
      <point x="483" y="364" type="line"/>
      <point x="753" y="105"/>
      <point x="853" y="2" type="qcurve"/>
      <point x="853" y="0" type="line"/>
      <point x="651" y="0" type="line"/>
      <point x="391" y="253"/>
      <point x="341" y="300" type="qcurve"/>
      <point x="145" y="212" type="line"/>
      <point x="145" y="5" type="line" smooth="yes"/>
      <point x="145" y="0"/>
      <point x="140" y="0" type="qcurve" smooth="yes"/>
      <point x="5" y="0" type="line" smooth="yes"/>
      <point x="0" y="0"/>
      <point x="0" y="5" type="qcurve" smooth="yes"/>
      <point x="0" y="834" type="line"/>
      <point x="144" y="740" type="line"/>
    </contour>
  </outline>
</glyph>
<glyph name="l" format="2">
  <advance width="911"/>
  <unicode hex="006C"/>
  <outline>
    <contour>
      <point x="144" y="245" type="line" smooth="yes"/>
      <point x="144" y="235"/>
      <point x="147" y="224" type="qcurve" smooth="yes"/>
      <point x="176" y="144"/>
      <point x="255" y="144" type="qcurve" smooth="yes"/>
      <point x="863" y="144" type="line"/>
      <point x="863" y="0" type="line"/>
      <point x="245" y="0" type="line" smooth="yes"/>
      <point x="216" y="0"/>
      <point x="162" y="16" type="qcurve"/>
      <point x="0" y="105"/>
      <point x="0" y="271" type="qcurve" smooth="yes"/>
      <point x="0" y="751" type="line"/>
      <point x="144" y="657" type="line"/>
    </contour>
  </outline>
</glyph>
<glyph name="m" format="2">
  <advance width="1405"/>
  <unicode hex="006D"/>
  <outline>
    <contour>
      <point x="850" y="700" type="qcurve" smooth="yes"/>
      <point x="1114" y="700" type="line" smooth="yes"/>
      <point x="1265" y="700"/>
      <point x="1344" y="520" type="qcurve"/>
      <point x="1356" y="468"/>
      <point x="1356" y="439" type="qcurve" smooth="yes"/>
      <point x="1356" y="5" type="line" smooth="yes"/>
      <point x="1356" y="0"/>
      <point x="1352" y="0" type="qcurve" smooth="yes"/>
      <point x="1220" y="0" type="line" smooth="yes"/>
      <point x="1214" y="0"/>
      <point x="1214" y="5" type="qcurve" smooth="yes"/>
      <point x="1214" y="437" type="line" smooth="yes"/>
      <point x="1214" y="520"/>
      <point x="1142" y="550" type="qcurve" smooth="yes"/>
      <point x="1118" y="556"/>
      <point x="1104" y="556" type="qcurve" smooth="yes"/>
      <point x="855" y="556" type="line" smooth="yes"/>
      <point x="846" y="556"/>
      <point x="832" y="553" type="qcurve" smooth="yes"/>
      <point x="749" y="524"/>
      <point x="749" y="450" type="qcurve" smooth="yes"/>
      <point x="749" y="5" type="line" smooth="yes"/>
      <point x="749" y="0"/>
      <point x="744" y="0" type="qcurve" smooth="yes"/>
      <point x="612" y="0" type="line" smooth="yes"/>
      <point x="607" y="0"/>
      <point x="607" y="5" type="qcurve" smooth="yes"/>
      <point x="607" y="450" type="line" smooth="yes"/>
      <point x="607" y="524"/>
      <point x="524" y="553" type="qcurve" smooth="yes"/>
      <point x="511" y="556"/>
      <point x="501" y="556" type="qcurve" smooth="yes"/>
      <point x="253" y="556" type="line" smooth="yes"/>
      <point x="166" y="556"/>
      <point x="145" y="462" type="qcurve"/>
      <point x="145" y="5" type="line" smooth="yes"/>
      <point x="145" y="0"/>
      <point x="140" y="0" type="qcurve" smooth="yes"/>
      <point x="5" y="0" type="line" smooth="yes"/>
      <point x="0" y="0"/>
      <point x="0" y="5" type="qcurve" smooth="yes"/>
      <point x="0" y="700" type="line"/>
      <point x="145" y="700" type="line"/>
      <point x="145" y="675" type="line"/>
      <point x="194" y="700"/>
      <point x="243" y="700" type="qcurve" smooth="yes"/>
      <point x="506" y="700" type="line" smooth="yes"/>
      <point x="597" y="700"/>
      <point x="678" y="619" type="qcurve"/>
      <point x="759" y="700"/>
    </contour>
  </outline>
</glyph>
<glyph name="n" format="2">
  <advance width="912"/>
  <unicode hex="006E"/>
  <outline>
    <contour>
      <point x="145" y="5" type="line" smooth="yes"/>
      <point x="145" y="0"/>
      <point x="140" y="0" type="qcurve" smooth="yes"/>
      <point x="5" y="0" type="line" smooth="yes"/>
      <point x="0" y="0"/>
      <point x="0" y="5" type="qcurve" smooth="yes"/>
      <point x="0" y="700" type="line"/>
      <point x="145" y="700" type="line"/>
      <point x="145" y="677" type="line"/>
      <point x="188" y="700"/>
      <point x="243" y="700" type="qcurve" smooth="yes"/>
      <point x="621" y="700" type="line" smooth="yes"/>
      <point x="676" y="700"/>
      <point x="729" y="669" type="qcurve" smooth="yes"/>
      <point x="863" y="580"/>
      <point x="863" y="429" type="qcurve" smooth="yes"/>
      <point x="863" y="5" type="line" smooth="yes"/>
      <point x="863" y="0"/>
      <point x="858" y="0" type="qcurve" smooth="yes"/>
      <point x="724" y="0" type="line" smooth="yes"/>
      <point x="719" y="0"/>
      <point x="719" y="5" type="qcurve" smooth="yes"/>
      <point x="719" y="462" type="line"/>
      <point x="698" y="556"/>
      <point x="610" y="556" type="qcurve" smooth="yes"/>
      <point x="253" y="556" type="line" smooth="yes"/>
      <point x="236" y="556"/>
      <point x="233" y="553" type="qcurve" smooth="yes"/>
      <point x="145" y="529"/>
      <point x="145" y="455" type="qcurve" smooth="yes"/>
    </contour>
  </outline>
</glyph>
<glyph name="p" format="2">
  <advance width="908"/>
  <unicode hex="0070"/>
  <outline>
    <contour>
      <point x="144" y="247" type="line" smooth="yes"/>
      <point x="144" y="176"/>
      <point x="224" y="149" type="qcurve" smooth="yes"/>
      <point x="242" y="144"/>
      <point x="281" y="144" type="qcurve" smooth="yes"/>
      <point x="579" y="144" type="line" smooth="yes"/>
      <point x="673" y="144"/>
      <point x="700" y="196" type="qcurve" smooth="yes"/>
      <point x="716" y="223"/>
      <point x="716" y="239" type="qcurve" smooth="yes"/>
      <point x="716" y="456" type="line"/>
      <point x="700" y="556"/>
      <point x="605" y="556" type="qcurve" smooth="yes"/>
      <point x="255" y="556" type="line" smooth="yes"/>
      <point x="176" y="556"/>
      <point x="147" y="476" type="qcurve" smooth="yes"/>
      <point x="144" y="466"/>
      <point x="144" y="456" type="qcurve" smooth="yes"/>
    </contour>
    <contour>
      <point x="144" y="700" type="line"/>
      <point x="144" y="674" type="line"/>
      <point x="156" y="682"/>
      <point x="162" y="685" type="qcurve" smooth="yes"/>
      <point x="213" y="700"/>
      <point x="245" y="700" type="qcurve" smooth="yes"/>
      <point x="615" y="700" type="line" smooth="yes"/>
      <point x="760" y="700"/>
      <point x="839" y="536" type="qcurve"/>
      <point x="860" y="481"/>
      <point x="860" y="430" type="qcurve" smooth="yes"/>
      <point x="860" y="271" type="line" smooth="yes"/>
      <point x="860" y="126"/>
      <point x="731" y="36" type="qcurve" smooth="yes"/>
      <point x="680" y="0"/>
      <point x="592" y="0" type="qcurve" smooth="yes"/>
      <point x="268" y="0" type="line" smooth="yes"/>
      <point x="198" y="0"/>
      <point x="144" y="26" type="qcurve"/>
      <point x="144" y="-108" type="line"/>
      <point x="0" y="-203" type="line"/>
      <point x="0" y="700" type="line"/>
    </contour>
  </outline>
</glyph>
<glyph name="q" format="2">
  <advance width="908"/>
  <unicode hex="0071"/>
  <outline>
    <contour>
      <point x="255" y="556" type="line" smooth="yes"/>
      <point x="160" y="556"/>
      <point x="144" y="456" type="qcurve"/>
      <point x="144" y="239" type="line" smooth="yes"/>
      <point x="144" y="223"/>
      <point x="160" y="196" type="qcurve" smooth="yes"/>
      <point x="187" y="144"/>
      <point x="281" y="144" type="qcurve" smooth="yes"/>
      <point x="579" y="144" type="line" smooth="yes"/>
      <point x="619" y="144"/>
      <point x="636" y="149" type="qcurve" smooth="yes"/>
      <point x="716" y="176"/>
      <point x="716" y="247" type="qcurve" smooth="yes"/>
      <point x="716" y="456" type="line" smooth="yes"/>
      <point x="716" y="466"/>
      <point x="713" y="476" type="qcurve" smooth="yes"/>
      <point x="684" y="556"/>
      <point x="605" y="556" type="qcurve" smooth="yes"/>
    </contour>
    <contour>
      <point x="859" y="-203" type="line"/>
      <point x="716" y="-108" type="line"/>
      <point x="716" y="26" type="line"/>
      <point x="662" y="0"/>
      <point x="592" y="0" type="qcurve" smooth="yes"/>
      <point x="268" y="0" type="line" smooth="yes"/>
      <point x="180" y="0"/>
      <point x="129" y="36" type="qcurve" smooth="yes"/>
      <point x="0" y="126"/>
      <point x="0" y="271" type="qcurve" smooth="yes"/>
      <point x="0" y="430" type="line" smooth="yes"/>
      <point x="0" y="481"/>
      <point x="21" y="536" type="qcurve"/>
      <point x="100" y="700"/>
      <point x="245" y="700" type="qcurve" smooth="yes"/>
      <point x="615" y="700" type="line" smooth="yes"/>
      <point x="647" y="700"/>
      <point x="698" y="685" type="qcurve" smooth="yes"/>
      <point x="704" y="682"/>
      <point x="716" y="674" type="qcurve"/>
      <point x="716" y="700" type="line"/>
      <point x="860" y="700" type="line"/>
      <point x="860" y="-200" type="line"/>
    </contour>
  </outline>
</glyph>
<glyph name="r" format="2">
  <advance width="830"/>
  <unicode hex="0072"/>
  <outline>
    <contour>
      <point x="253" y="556" type="line" smooth="yes"/>
      <point x="166" y="556"/>
      <point x="145" y="462" type="qcurve"/>
      <point x="145" y="5" type="line" smooth="yes"/>
      <point x="145" y="0"/>
      <point x="140" y="0" type="qcurve" smooth="yes"/>
      <point x="5" y="0" type="line" smooth="yes"/>
      <point x="0" y="0"/>
      <point x="0" y="5" type="qcurve" smooth="yes"/>
      <point x="0" y="700" type="line"/>
      <point x="145" y="700" type="line"/>
      <point x="145" y="675" type="line"/>
      <point x="194" y="700"/>
      <point x="243" y="700" type="qcurve" smooth="yes"/>
      <point x="781" y="700" type="line"/>
      <point x="594" y="556" type="line"/>
    </contour>
  </outline>
</glyph>
<glyph name="t" format="2">
  <advance width="900"/>
  <unicode hex="0074"/>
  <outline>
    <contour>
      <point x="852" y="700" type="line"/>
      <point x="683" y="556" type="line"/>
      <point x="499" y="556" type="line"/>
      <point x="499" y="5" type="line" smooth="yes"/>
      <point x="499" y="0"/>
      <point x="494" y="0" type="qcurve" smooth="yes"/>
      <point x="360" y="0" type="line" smooth="yes"/>
      <point x="355" y="0"/>
      <point x="355" y="5" type="qcurve" smooth="yes"/>
      <point x="355" y="556" type="line"/>
      <point x="168" y="556" type="line"/>
      <point x="0" y="700" type="line"/>
    </contour>
  </outline>
</glyph>
<glyph name="u" format="2">
  <advance width="911"/>
  <unicode hex="0075"/>
  <outline>
    <contour>
      <point x="863" y="271" type="line" smooth="yes"/>
      <point x="863" y="119"/>
      <point x="729" y="31" type="qcurve" smooth="yes"/>
      <point x="677" y="0"/>
      <point x="630" y="0" type="qcurve" smooth="yes"/>
      <point x="232" y="0" type="line" smooth="yes"/>
      <point x="122" y="0"/>
      <point x="36" y="132" type="qcurve"/>
      <point x="0" y="201"/>
      <point x="0" y="269" type="qcurve" smooth="yes"/>
      <point x="0" y="695" type="line"/>
      <point x="1" y="698" type="line"/>
      <point x="145" y="605" type="line"/>
      <point x="145" y="238" type="line" smooth="yes"/>
      <point x="145" y="178"/>
      <point x="230" y="145" type="qcurve"/>
      <point x="618" y="145" type="line" smooth="yes"/>
      <point x="691" y="145"/>
      <point x="718" y="232" type="qcurve"/>
      <point x="718" y="604" type="line"/>
      <point x="862" y="698" type="line"/>
      <point x="863" y="697" type="line"/>
    </contour>
  </outline>
</glyph>
<glyph name="v" format="2">
  <advance width="909"/>
  <unicode hex="0076"/>
  <outline>
    <contour>
      <point x="426" y="0" type="line" smooth="yes"/>
      <point x="335" y="0"/>
      <point x="297" y="111" type="qcurve"/>
      <point x="0" y="697" type="line"/>
      <point x="5" y="700" type="line"/>
      <point x="152" y="700" type="line" smooth="yes"/>
      <point x="160" y="697"/>
      <point x="344" y="328" type="qcurve" smooth="yes"/>
      <point x="420" y="176"/>
      <point x="426" y="173" type="qcurve" smooth="yes"/>
      <point x="429" y="173"/>
      <point x="429" y="170" type="qcurve"/>
      <point x="443" y="170"/>
      <point x="496" y="290" type="qcurve"/>
      <point x="508" y="306"/>
      <point x="705" y="700" type="qcurve"/>
      <point x="860" y="700" type="line"/>
      <point x="813" y="598"/>
      <point x="530" y="42" type="qcurve"/>
      <point x="488" y="0"/>
      <point x="437" y="0" type="qcurve" smooth="yes"/>
    </contour>
  </outline>
</glyph>
<glyph name="w" format="2">
  <advance width="1190"/>
  <unicode hex="0077"/>
  <outline>
    <contour>
      <point x="643" y="238" type="line" smooth="yes"/>
      <point x="643" y="178"/>
      <point x="729" y="145" type="qcurve"/>
      <point x="896" y="145" type="line" smooth="yes"/>
      <point x="970" y="145"/>
      <point x="997" y="232" type="qcurve"/>
      <point x="997" y="604" type="line"/>
      <point x="1141" y="698" type="line"/>
      <point x="1142" y="697" type="line"/>
      <point x="1142" y="271" type="line" smooth="yes"/>
      <point x="1142" y="120"/>
      <point x="1007" y="31" type="qcurve" smooth="yes"/>
      <point x="955" y="0"/>
      <point x="909" y="0" type="qcurve" smooth="yes"/>
      <point x="731" y="0" type="line" smooth="yes"/>
      <point x="643" y="0"/>
      <point x="571" y="83" type="qcurve"/>
      <point x="544" y="54"/>
      <point x="509" y="31" type="qcurve" smooth="yes"/>
      <point x="457" y="0"/>
      <point x="411" y="0" type="qcurve" smooth="yes"/>
      <point x="232" y="0" type="line" smooth="yes"/>
      <point x="122" y="0"/>
      <point x="36" y="132" type="qcurve"/>
      <point x="0" y="201"/>
      <point x="0" y="269" type="qcurve" smooth="yes"/>
      <point x="0" y="695" type="line"/>
      <point x="1" y="698" type="line"/>
      <point x="145" y="605" type="line"/>
      <point x="145" y="238" type="line" smooth="yes"/>
      <point x="145" y="178"/>
      <point x="230" y="145" type="qcurve"/>
      <point x="398" y="145" type="line" smooth="yes"/>
      <point x="472" y="145"/>
      <point x="499" y="232" type="qcurve"/>
      <point x="499" y="695" type="line"/>
      <point x="500" y="698" type="line"/>
      <point x="643" y="605" type="line"/>
    </contour>
  </outline>
</glyph>
<glyph name="x" format="2">
  <advance width="906"/>
  <unicode hex="0078"/>
  <outline>
    <contour>
      <point x="191" y="700" type="line"/>
      <point x="429" y="455" type="line"/>
      <point x="667" y="700" type="line"/>
      <point x="858" y="700" type="line"/>
      <point x="858" y="698" type="line"/>
      <point x="832" y="668"/>
      <point x="527" y="349" type="qcurve"/>
      <point x="547" y="331"/>
      <point x="858" y="2" type="qcurve"/>
      <point x="858" y="0" type="line"/>
      <point x="667" y="0" type="line" smooth="yes"/>
      <point x="665" y="0"/>
      <point x="429" y="246" type="qcurve"/>
      <point x="194" y="0" type="line"/>
      <point x="0" y="0" type="line"/>
      <point x="0" y="2" type="line"/>
      <point x="331" y="352" type="line"/>
      <point x="275" y="406"/>
      <point x="0" y="698" type="qcurve"/>
      <point x="0" y="700" type="line"/>
    </contour>
  </outline>
</glyph>
<glyph name="y" format="2">
  <advance width="911"/>
  <unicode hex="0079"/>
  <outline>
    <contour>
      <point x="612" y="-60" type="line" smooth="yes"/>
      <point x="623" y="-60"/>
      <point x="636" y="-57" type="qcurve" smooth="yes"/>
      <point x="706" y="-33"/>
      <point x="716" y="24" type="qcurve"/>
      <point x="671" y="0"/>
      <point x="630" y="0" type="qcurve" smooth="yes"/>
      <point x="232" y="0" type="line" smooth="yes"/>
      <point x="122" y="0"/>
      <point x="36" y="132" type="qcurve"/>
      <point x="0" y="201"/>
      <point x="0" y="269" type="qcurve" smooth="yes"/>
      <point x="0" y="695" type="line"/>
      <point x="1" y="698" type="line"/>
      <point x="145" y="605" type="line"/>
      <point x="145" y="238" type="line" smooth="yes"/>
      <point x="145" y="178"/>
      <point x="230" y="145" type="qcurve"/>
      <point x="618" y="145" type="line" smooth="yes"/>
      <point x="691" y="145"/>
      <point x="718" y="232" type="qcurve"/>
      <point x="718" y="604" type="line"/>
      <point x="862" y="698" type="line"/>
      <point x="863" y="697" type="line"/>
      <point x="863" y="78" type="line" smooth="yes"/>
      <point x="863" y="1"/>
      <point x="832" y="-60" type="qcurve" smooth="yes"/>
      <point x="751" y="-204"/>
      <point x="618" y="-204" type="qcurve" smooth="yes"/>
      <point x="219" y="-204" type="line"/>
      <point x="392" y="-60" type="line"/>
    </contour>
  </outline>
</glyph>
<glyph name="z" format="2">
  <advance width="909"/>
  <unicode hex="007A"/>
  <outline>
    <contour>
      <point x="662" y="700" type="line" smooth="yes"/>
      <point x="677" y="700"/>
      <point x="706" y="695" type="qcurve"/>
      <point x="860" y="634"/>
      <point x="860" y="496" type="qcurve" smooth="yes"/>
      <point x="860" y="476" type="line" smooth="yes"/>
      <point x="860" y="457"/>
      <point x="855" y="437" type="qcurve" smooth="yes"/>
      <point x="798" y="276"/>
      <point x="651" y="276" type="qcurve" smooth="yes"/>
      <point x="199" y="276" type="line"/>
      <point x="129" y="267"/>
      <point x="129" y="217" type="qcurve" smooth="yes"/>
      <point x="129" y="207" type="line" smooth="yes"/>
      <point x="129" y="154"/>
      <point x="202" y="145" type="qcurve"/>
      <point x="663" y="145" type="line"/>
      <point x="854" y="0" type="line"/>
      <point x="196" y="0" type="line" smooth="yes"/>
      <point x="171" y="0"/>
      <point x="142" y="10" type="qcurve" smooth="yes"/>
      <point x="0" y="71"/>
      <point x="0" y="212" type="qcurve" smooth="yes"/>
      <point x="0" y="214" type="line" smooth="yes"/>
      <point x="0" y="241"/>
      <point x="5" y="258" type="qcurve" smooth="yes"/>
      <point x="55" y="424"/>
      <point x="225" y="424" type="qcurve" smooth="yes"/>
      <point x="672" y="424" type="line" smooth="yes"/>
      <point x="721" y="424"/>
      <point x="734" y="491" type="qcurve"/>
      <point x="729" y="505"/>
      <point x="729" y="512" type="qcurve" smooth="yes"/>
      <point x="712" y="556"/>
      <point x="646" y="556" type="qcurve" smooth="yes"/>
      <point x="182" y="556" type="line"/>
      <point x="9" y="700" type="line"/>
    </contour>
  </outline>
</glyph>
